<svg xmlns="http://www.w3.org/2000/svg" width="26" height="24" viewBox="0 0 26 24" fill="none">
  <g opacity="0.75" clip-path="url(#clip0_1_23)">
    <path d="M11.8879 0.0515614C11.3293 0.107811 10.405 0.299999 9.8566 0.478124C9.32848 0.646873 8.41442 1.05937 8.24684 1.20469C8.03356 1.3875 8.12496 1.73437 8.40426 1.8C8.50074 1.82344 8.64801 1.77187 9.00348 1.59844C9.8109 1.19531 10.5879 0.956249 11.6289 0.792186C12.1265 0.712499 13.8125 0.707811 14.3457 0.787498C17.0371 1.19062 18.9261 2.50312 19.6574 4.48125C19.8757 5.07187 19.9519 5.57812 19.9925 6.59531C20.0179 7.39219 20.0332 7.50937 20.1195 7.57969C20.2668 7.70156 20.5105 7.67812 20.6527 7.52812C20.7644 7.41094 20.7695 7.36406 20.7695 6.80156C20.7695 6.01875 20.6933 5.34375 20.541 4.75312C19.9722 2.54062 18.0222 0.867186 15.3105 0.253124C14.3 0.0281239 12.9796 -0.0515637 11.8879 0.0515614Z" fill="white"/>
    <path d="M6.94685 2.19375C5.99724 3.12656 5.42849 4.33125 5.28123 5.71406C5.21521 6.34688 5.21521 11.0813 5.28123 11.4844C5.42849 12.3516 6.14959 13.05 7.08904 13.2328L7.36326 13.2844V13.8141C7.36326 14.1141 7.34294 14.3438 7.31755 14.3438C7.28709 14.3438 6.95193 14.2406 6.56599 14.1141C5.29646 13.7016 5.07302 13.5563 4.66677 12.825C4.30623 12.1875 3.81365 11.8406 3.10779 11.7188C2.00584 11.5359 0.908961 12.3234 0.787086 13.3922C0.766773 13.5422 0.776929 13.7484 0.80232 13.8516C0.842945 14.0344 0.837867 14.0438 0.553492 14.3297C-0.101586 14.9813 -0.177758 15.9469 0.375758 16.6594C0.761695 17.1609 1.25935 17.4047 1.96521 17.4281C2.40701 17.4469 2.44763 17.4375 2.95545 17.25C3.62576 17.0016 3.87459 16.9594 4.25037 17.0203C4.52459 17.0672 7.24138 17.9297 7.32771 18C7.37341 18.0375 5.67224 18.5859 5.2863 18.6609C4.91052 18.7313 4.60584 18.6844 4.02693 18.4641C3.66638 18.3234 3.43279 18.2672 3.1738 18.2484C2.34099 18.1875 1.58435 18.5953 1.20349 19.3078C1.05115 19.5938 1.04099 19.6453 1.04099 20.1094C1.04099 20.5547 1.05623 20.625 1.18318 20.8688C1.26443 21.0188 1.43709 21.2531 1.56912 21.3844L1.81287 21.6328L1.78748 21.9891C1.68591 23.4563 3.31091 24.4406 4.74295 23.7797C5.09334 23.6156 5.42341 23.2875 5.68748 22.8234C6.01248 22.2656 6.26638 22.0453 6.85544 21.8156C7.22107 21.675 7.3531 21.6 7.40388 21.5063C7.48513 21.3422 7.43435 21.1547 7.27693 21.0609C7.11443 20.9625 6.85544 21.0188 6.26638 21.2813C5.76365 21.5063 5.34724 21.8906 5.05779 22.4063C4.95115 22.5984 4.78865 22.8281 4.70232 22.9125C4.38748 23.2266 3.95076 23.3484 3.50896 23.25C2.77771 23.0906 2.38162 22.4156 2.61521 21.7266C2.73201 21.3891 2.69138 21.2859 2.3613 21.0844C1.50818 20.5594 1.61482 19.4016 2.54412 19.0313C2.89959 18.8906 3.25505 18.9188 3.74255 19.1156C4.73279 19.5234 5.04763 19.5094 6.69294 18.9844C7.35818 18.7734 8.04373 18.5578 8.21638 18.5016L8.54138 18.3984L9.20662 18.6188C9.57732 18.7406 10.0953 18.9234 10.3644 19.0266C10.6336 19.1344 11.0703 19.2703 11.3293 19.3313C11.5933 19.3922 11.7711 19.4531 11.7304 19.4719C11.6898 19.4859 10.9027 19.7438 9.97849 20.0391C9.05935 20.3391 8.26716 20.6156 8.21638 20.6578C7.99802 20.8359 8.17576 21.2344 8.47029 21.2344C8.54646 21.2344 9.58748 20.9156 10.7808 20.5313C11.9742 20.1422 12.9746 19.8281 13 19.8281C13.1219 19.8281 19.0531 21.7734 19.3832 21.9188C19.8047 22.1063 20.0129 22.3078 20.282 22.7813C20.5461 23.2359 20.8152 23.5313 21.1402 23.7094C22.5672 24.4969 24.3191 23.5172 24.2125 21.9938L24.1871 21.6328L24.4308 21.3844C24.5629 21.2531 24.7355 21.0188 24.8168 20.8688C24.9437 20.625 24.959 20.5547 24.959 20.1094C24.959 19.6453 24.9488 19.5938 24.7914 19.3031C24.5832 18.9094 24.1414 18.5203 23.7301 18.3703C23.4914 18.2813 23.339 18.2625 22.9531 18.2625C22.5011 18.2625 22.4402 18.2766 21.973 18.4594C21.3941 18.6844 21.0945 18.7359 20.7136 18.6609C20.3328 18.5906 17.7734 17.7563 17.7734 17.7047C17.7734 17.6813 17.8496 17.5781 17.9461 17.475C18.1847 17.2219 18.459 16.725 18.5554 16.3781C18.6062 16.2047 18.6367 15.8906 18.6367 15.6047V15.1172L19.5101 14.8359C20.7238 14.4469 21.0996 14.2688 21.4347 13.9313C21.5871 13.7813 21.8004 13.5 21.907 13.3125C22.0187 13.1203 22.1965 12.8766 22.3031 12.7688C22.9582 12.1125 24.1312 12.3797 24.4054 13.2516C24.4816 13.4859 24.4816 13.5563 24.4258 13.7813C24.2836 14.3578 24.2836 14.3578 24.5933 14.5688C24.9539 14.8172 25.0707 14.9578 25.1672 15.2719C25.3094 15.7266 25.1722 16.1578 24.7812 16.4625C24.3699 16.7906 23.9383 16.8188 23.2222 16.5516C22.2066 16.1766 21.9172 16.1859 20.4394 16.65C19.1851 17.0438 19.0937 17.0906 19.0937 17.3391C19.0937 17.4844 19.2918 17.6719 19.439 17.6719C19.5152 17.6719 20.0535 17.5219 20.6375 17.3391C21.9984 16.9078 22.1 16.9031 22.9734 17.2219C23.5676 17.4422 23.5929 17.4469 24.0398 17.4281C24.7355 17.4047 25.2383 17.1609 25.6242 16.6594C26.1777 15.9469 26.1015 14.9813 25.4465 14.3297C25.1621 14.0438 25.157 14.0344 25.1976 13.8516C25.223 13.7484 25.2332 13.5422 25.2129 13.3922C25.091 12.3234 23.9941 11.5359 22.8922 11.7188C22.1863 11.8406 21.6937 12.1875 21.3332 12.825C20.9269 13.5563 20.7035 13.7016 19.434 14.1141C19.048 14.2406 18.7129 14.3438 18.6824 14.3438C18.657 14.3438 18.6367 14.1141 18.6367 13.8141V13.2844L18.9109 13.2328C19.5965 13.1016 20.1957 12.675 20.4902 12.1266C20.739 11.6531 20.7746 11.3344 20.7594 9.85313C20.7441 8.63438 20.739 8.57813 20.6375 8.48438C20.5054 8.3625 20.2414 8.34844 20.1144 8.45625C20.023 8.53125 20.0179 8.63438 19.9976 9.99844C19.9824 11.4563 19.9824 11.4609 19.8504 11.7188C19.566 12.2766 19.2105 12.4875 18.4285 12.5672C17.5043 12.6609 17.0777 12.8203 16.6867 13.2188C16.3414 13.5703 16.2804 13.7391 16.2601 14.3906C16.25 14.7141 16.2195 15 16.189 15.0328C16.1332 15.0984 15.3816 15.375 15.2597 15.375C15.1988 15.375 15.1836 15.3094 15.1836 15.0328C15.1836 14.7328 15.1683 14.6766 15.0668 14.5875C14.9094 14.4516 14.7011 14.4563 14.5488 14.6016C14.432 14.7047 14.4219 14.7516 14.4219 15.1313V15.5484L14.0816 15.5766C13.8886 15.5953 13.6601 15.6094 13.5738 15.6094H13.4062V15.3281C13.4062 14.8219 13.2234 14.6109 12.8679 14.6906C12.6953 14.7328 12.5937 14.9672 12.5937 15.3281V15.6094H12.4312C12.3398 15.6094 12.1113 15.5953 11.9234 15.5766L11.5781 15.5484V15.1313C11.5781 14.7516 11.5679 14.7047 11.4511 14.6016C11.2937 14.4516 11.0754 14.4469 10.9281 14.5922C10.8367 14.6813 10.8164 14.7563 10.8164 15.0375C10.8164 15.2906 10.8011 15.375 10.7504 15.375C10.659 15.375 10.1816 15.2203 9.94294 15.1125L9.74998 15.0281V14.5031C9.74998 13.875 9.65349 13.5797 9.34373 13.2516C8.93748 12.825 8.51599 12.6656 7.57146 12.5672C6.78943 12.4875 6.43396 12.2766 6.14959 11.7188L6.01755 11.4609L6.00232 8.90625C5.98201 6.15469 6.01248 5.59688 6.22068 4.85156C6.43396 4.07344 7.05857 3.0375 7.58669 2.58282C7.68318 2.49844 7.71873 2.41875 7.71873 2.29688C7.71873 2.08125 7.59177 1.96875 7.3531 1.96875C7.20584 1.96875 7.13474 2.00625 6.94685 2.19375ZM3.32615 12.5109C3.59021 12.6188 3.8492 12.8906 4.09295 13.3125C4.19959 13.5047 4.41287 13.7813 4.56521 13.9313C4.90037 14.2688 5.27615 14.4469 6.48982 14.8359L7.36326 15.1172V15.6047C7.36326 16.275 7.52576 16.8 7.88123 17.2641C7.93709 17.3391 7.97771 17.4047 7.96755 17.4094C7.9574 17.4188 7.24138 17.1984 6.3781 16.9172C5.5199 16.6359 4.61599 16.3688 4.37732 16.3266C3.97615 16.2516 3.91013 16.2516 3.55466 16.3219C3.34138 16.3641 2.99607 16.4672 2.78787 16.5516C2.13279 16.8188 1.60466 16.7813 1.18318 16.4391C0.731226 16.0688 0.63982 15.4172 0.980054 14.9484C1.04099 14.8641 1.2238 14.7 1.39138 14.5828C1.72146 14.3531 1.71638 14.3578 1.5742 13.7813C1.51834 13.5563 1.51834 13.4859 1.59451 13.2516C1.81795 12.5438 2.58982 12.2156 3.32615 12.5109ZM8.54646 13.5328C8.64802 13.5984 8.78513 13.7297 8.85115 13.8234C8.95779 13.9828 8.96287 14.0578 8.98826 15.0281C9.01365 15.9656 9.0238 16.0781 9.11013 16.1672C9.31326 16.3734 9.74998 16.2328 9.74998 15.9609C9.74998 15.8953 9.76521 15.8438 9.78044 15.8438C9.80076 15.8438 10.0394 15.9094 10.3136 15.9891L10.8164 16.1391V16.4672C10.8164 16.7438 10.8367 16.8188 10.9281 16.9078C11.0754 17.0531 11.2937 17.0484 11.4511 16.8984C11.5578 16.8047 11.5781 16.7391 11.5781 16.5188V16.2516L11.9234 16.2797C12.1113 16.2984 12.3398 16.3125 12.4312 16.3125H12.5937V16.5703C12.5937 17.0531 12.7816 17.2641 13.132 17.1844C13.2996 17.1422 13.4062 16.9078 13.4062 16.5703V16.3125H13.5738C13.6601 16.3125 13.8886 16.2984 14.0816 16.2797L14.4219 16.2516V16.5188C14.4219 16.7391 14.4422 16.8047 14.5488 16.8984C14.7011 17.0438 14.9094 17.0484 15.0668 16.9125C15.1683 16.8234 15.1836 16.7672 15.1836 16.4719V16.1297L15.4019 16.0734C15.5187 16.0453 15.7472 15.9844 15.9047 15.9328C16.2652 15.8203 16.25 15.8203 16.25 15.9609C16.25 16.2516 16.707 16.3781 16.9051 16.1438C17.0066 16.0266 17.0117 15.9563 17.0117 15.0281C17.0117 14.0859 17.0168 14.0297 17.1285 13.8516C17.2301 13.6828 17.6972 13.3594 17.8394 13.3594C17.8597 13.3594 17.875 14.0109 17.8648 14.8031L17.8496 16.2469L17.6515 16.6125C17.1183 17.6156 15.5949 18.4688 13.8886 18.7313C11.5476 19.0875 8.82068 17.925 8.22146 16.3219C8.13513 16.0922 8.12498 15.9188 8.12498 14.7094V13.3547L8.24177 13.3828C8.30271 13.4016 8.43982 13.4672 8.54646 13.5328ZM18.6418 18.7781C19.4898 19.05 20.3277 19.3031 20.5105 19.3453C21.0894 19.4672 21.5465 19.4016 22.4199 19.0594C22.8109 18.9047 23.1461 18.9 23.4863 19.05C24.3953 19.4391 24.4765 20.5641 23.6336 21.0797C23.3035 21.2813 23.2629 21.3891 23.3797 21.7266C23.4812 22.0359 23.4812 22.2375 23.3746 22.5234C23.141 23.1609 22.298 23.4703 21.6429 23.1609C21.3789 23.0344 21.1707 22.8141 20.9422 22.4109C20.6426 21.8859 20.2363 21.5016 19.7336 21.2859C19.5051 21.1828 18.1644 20.7281 16.7476 20.2688L14.1679 19.4391L14.7215 19.3078C15.0211 19.2375 15.4781 19.0922 15.732 18.9938C16.1738 18.8156 16.9254 18.4172 16.9863 18.3234C17.0066 18.3 17.0371 18.2813 17.0625 18.2813C17.0879 18.2813 17.7988 18.5063 18.6418 18.7781Z" fill="white"/>
    <path d="M8.06915 7.51875C7.56641 7.64062 7.09922 8.00625 6.89102 8.43281C6.72852 8.76094 6.70821 9.4125 6.84532 9.82969C7.1754 10.8281 8.08438 11.3953 9.36407 11.3953C10.4203 11.4 11.2887 11.0344 11.7305 10.3969C12.0758 9.90937 12.2078 9.32812 12.1266 8.65312C12.0809 8.25469 11.8828 7.72031 11.7203 7.56094L11.6137 7.45312L9.95821 7.45781C8.81563 7.45781 8.23165 7.47656 8.06915 7.51875Z" fill="white"/>
    <path d="M14.2543 7.58906C13.975 7.89844 13.7871 8.74218 13.8683 9.3375C13.9293 9.7875 14.0308 10.0594 14.2644 10.3922C14.7062 11.0203 15.5797 11.3953 16.6054 11.3953C17.9105 11.3953 18.8195 10.8375 19.1547 9.82968C19.3019 9.375 19.2715 8.75625 19.0785 8.38593C18.9109 8.0625 18.5758 7.76718 18.1898 7.60312L17.9004 7.47656L16.1433 7.4625L14.3863 7.44844L14.2543 7.58906Z" fill="white"/>
    <path d="M12.2789 10.7484C11.6695 11.2641 11.507 11.4375 11.3293 11.7516C11.0601 12.2391 11.3039 12.8906 11.8574 13.1625C12.0656 13.2656 12.6191 13.2656 12.8375 13.1625C12.9898 13.0922 13.0101 13.0922 13.1676 13.1625C13.3808 13.2656 13.9344 13.2656 14.1426 13.1625C14.5336 12.9703 14.7722 12.6 14.7773 12.1969C14.7773 11.7563 14.5285 11.4188 13.6754 10.7109C13.264 10.3641 13.1117 10.2656 13 10.2656C12.8832 10.2656 12.7258 10.3734 12.2789 10.7484Z" fill="white"/>
  </g>
  <defs>
    <clipPath id="clip0_1_23">
      <rect width="26" height="24" fill="white"/>
    </clipPath>
  </defs>
</svg>