<?xml version="1.0" standalone="no"?>
<!DOCTYPE svg PUBLIC "-//W3C//DTD SVG 20010904//EN"
 "http://www.w3.org/TR/2001/REC-SVG-20010904/DTD/svg10.dtd">
<svg version="1.0" xmlns="http://www.w3.org/2000/svg"
 width="512.000000pt" height="512.000000pt" viewBox="0 0 512.000000 512.000000"
 preserveAspectRatio="xMidYMid meet">

<g transform="translate(0.000000,512.000000) scale(0.100000,-0.100000)"
fill="#000000" stroke="none">
<path d="M1855 5113 c-470 -41 -921 -252 -1258 -590 -608 -607 -768 -1520
-401 -2291 103 -217 232 -399 404 -571 577 -577 1429 -749 2193 -442 148 59
287 140 493 286 11 8 182 -158 756 -731 817 -816 780 -784 890 -771 136 16
221 156 173 284 -15 42 -115 146 -756 788 -407 407 -739 743 -739 747 0 4 30
49 66 100 297 420 425 929 359 1435 -79 601 -432 1143 -957 1466 -353 218
-809 326 -1223 290z m403 -438 c350 -56 654 -209 896 -451 245 -246 395 -541
452 -889 19 -110 21 -351 4 -460 -78 -528 -398 -973 -869 -1210 -232 -116
-455 -168 -721 -167 -256 1 -483 54 -702 163 -544 272 -888 825 -888 1429 0
271 54 491 182 741 227 444 674 765 1173 843 124 19 353 19 473 1z"/>
</g>
</svg>
